#!OML:ASF H:\LiuWeirdWalks\Patient Classification 1\Patient 1\Session 1\male.ASF
:FULLY-SPECIFIED
:DEGREES
850
root 2.22538 18.2895 14.9511 10.5861 4.82534 -17.0088
lowerback 13.748 -1.66061 -11.0656
upperback 0.951569 -4.27694 -5.9896
thorax -6.3868 -1.83487 0.611746
lowerneck -17.7243 0.511586 8.07218
upperneck 11.4116 -2.106 5.15943
head 6.39031 -0.205097 0.15256
rclavicle 1.43125e-014 6.36111e-015
rhumerus -16.2443 -40.5891 5.71933
rradius 23.7586
rwrist 1.24172
rhand -23.8486 3.94252
rfingers 7.12502
rthumb 2.62356 -26.0211
lclavicle 1.43125e-014 6.36111e-015
lhumerus -21.818 35.1701 26.263
lradius 35.9756
lwrist 10.0111
lhand -19.4075 -3.13874
lfingers 7.12502
lthumb 6.91181 26.7284
rfemur -5.14887 -8.35003 25.804
rtibia 41.8809
rfoot 8.36251 -1.74652
rtoes -11.1012
lfemur -22.86 2.2191 0.228812
ltibia 36.7389
lfoot -13.3579 10.7861
ltoes -14.9359
851
root 2.25704 18.2966 15.0055 10.4344 4.91193 -16.7044
lowerback 13.7014 -1.47147 -10.8834
upperback 1.01271 -3.97236 -5.76365
thorax -6.31431 -1.69569 0.698517
lowerneck -18.0459 0.251682 7.50657
upperneck 11.636 -2.36718 5.15109
head 6.51575 -0.341558 0.211253
rclavicle -1.27222e-014 -7.95139e-014
rhumerus -17.2701 -40.231 6.19722
rradius 24.5624
rwrist 0.962629
rhand -23.978 3.45436
rfingers 7.12502
rthumb 2.49857 -26.5108
lclavicle -1.27222e-014 -7.95139e-014
lhumerus -21.0384 35.3705 26.538
lradius 35.8798
lwrist 9.7998
lhand -19.3634 -3.10148
lfingers 7.12502
lthumb 6.95438 26.7643
rfemur -5.44794 -8.67684 25.3704
rtibia 42.189
rfoot 7.80251 -2.90014
rtoes -10.6671
lfemur -22.4848 2.24466 -0.225954
ltibia 36.6148
lfoot -13.3126 10.6012
ltoes -15.1034
852
root 2.2893 18.3031 15.0607 10.2785 4.99254 -16.3803
lowerback 13.6427 -1.22696 -10.6621
upperback 1.12945 -3.58004 -5.51289
thorax -6.18371 -1.51871 0.773985
lowerneck -18.5853 -0.0958494 6.71483
upperneck 11.8923 -2.71765 5.20355
head 6.69186 -0.521683 0.314873
rclavicle 1.59028e-015 -1.11319e-013
rhumerus -18.7536 -39.2714 6.81255
rradius 26.0679
rwrist -0.245039
rhand -24.25 2.74127
rfingers 7.12502
rthumb 2.23591 -27.2268
lclavicle 1.59028e-015 -1.11319e-013
lhumerus -20.0563 35.5496 27.1136
lradius 35.8359
lwrist 9.68496
lhand -19.3937 -3.00981
lfingers 7.12502
lthumb 6.92511 26.8569
rfemur -5.73285 -9.0099 24.9104
rtibia 42.4326
rfoot 7.20287 -4.0309
rtoes -10.3964
lfemur -22.0959 2.24384 -0.704773
ltibia 36.497
lfoot -13.2767 10.455
ltoes -15.2555
853
root 2.32243 18.3085 15.1155 10.1199 5.06288 -16.0542
lowerback 13.5803 -0.919728 -10.3693
upperback 1.28807 -3.08968 -5.24003
thorax -6.01766 -1.29805 0.816419
lowerneck -19.3033 -0.533865 5.73098
upperneck 12.1714 -3.15225 5.29401
head 6.91126 -0.74468 0.450184
rclavicle -3.33958e-014 -4.45278e-014
rhumerus -20.6542 -37.9171 7.57087
rradius 28.1835
rwrist -2.16078
rhand -24.7078 1.64994
rfingers 7.12502
rthumb 1.79376 -28.3223
lclavicle -3.33958e-014 -4.45278e-014
lhumerus -18.8133 35.8178 27.992
lradius 35.7533
lwrist 9.51801
lhand -19.4501 -2.92281
lfingers 7.12502
lthumb 6.87066 26.9457
rfemur -6.01505 -9.34442 24.4418
rtibia 42.615
rfoot 6.53519 -5.10207
rtoes -10.3097
lfemur -21.6992 2.23035 -1.18966
ltibia 36.385
lfoot -13.2527 10.339
ltoes -15.375
854
root 2.35676 18.3124 15.1705 9.95056 5.12939 -15.736
lowerback 13.5244 -0.608904 -10.0379
upperback 1.45786 -2.59071 -4.97129
thorax -5.84621 -1.07373 0.831772
lowerneck -20.0678 -0.990212 4.7485
upperneck 12.4895 -3.59919 5.37398
head 7.1566 -0.972923 0.578086
rclavicle -1.59028e-014 -8.26944e-014
rhumerus -22.5704 -36.6645 8.27158
rradius 30.3744
rwrist -4.06561
rhand -25.2696 0.449158
rfingers 7.12502
rthumb 1.25118 -29.5269
lclavicle -1.59028e-014 -8.26944e-014
lhumerus -17.5163 36.1028 28.9075
lradius 35.6747
lwrist 9.39759
lhand -19.535 -2.79557
lfingers 7.12502
lthumb 6.7887 27.0756
rfemur -6.28247 -9.6838 23.9718
rtibia 42.7367
rfoot 5.80239 -6.08327
rtoes -10.2867
lfemur -21.2881 2.21789 -1.67105
ltibia 36.2815
lfoot -13.2471 10.2346
ltoes -15.4588
855
root 2.39191 18.3152 15.2253 9.7789 5.18845 -15.3963
lowerback 13.4686 -0.350382 -9.75561
upperback 1.59673 -2.17424 -4.7338
thorax -5.70065 -0.885656 0.855206
lowerneck -20.6514 -1.37807 3.94665
upperneck 12.7744 -3.9626 5.39723
head 7.36155 -1.16317 0.667014
rclavicle 2.70347e-014 1.27222e-014
rhumerus -24.077 -35.8611 8.72742
rradius 32.0708
rwrist -5.49167
rhand -25.8224 -0.587963
rfingers 7.12502
rthumb 0.71729 -30.5665
lclavicle 2.70347e-014 1.27222e-014
lhumerus -16.4029 36.378 29.5657
lradius 35.6006
lwrist 9.24034
lhand -19.5885 -2.74315
lfingers 7.12502
lthumb 6.73711 27.1297
rfemur -6.54882 -10.0222 23.4734
rtibia 42.8035
rfoot 5.01634 -6.97834
rtoes -10.2282
lfemur -20.8711 2.21208 -2.1806
ltibia 36.1855
lfoot -13.2514 10.1387
ltoes -15.5176
856
root 2.42758 18.3164 15.2797 9.60917 5.23479 -15.0609
lowerback 13.4107 -0.173951 -9.53356
upperback 1.68759 -1.88146 -4.52469
thorax -5.59432 -0.753106 0.903241
lowerneck -21.0087 -1.62653 3.46416
upperneck 12.9878 -4.17423 5.27656
head 7.49734 -1.28651 0.675936
rclavicle -1.59028e-015 -2.54444e-014
rhumerus -25.0263 -35.4319 8.84691
rradius 33.1111
rwrist -6.30349
rhand -26.168 -1.29867
rfingers 7.12502
rthumb 0.383514 -31.2781
lclavicle -1.59028e-015 -2.54444e-014
lhumerus -15.6165 36.551 29.8358
lradius 35.608
lwrist 9.29938
lhand -19.6822 -2.65226
lfingers 7.12502
lthumb 6.64661 27.2234
rfemur -6.82393 -10.3407 22.9802
rtibia 42.8207
rfoot 4.19878 -7.8058
rtoes -10.0618
lfemur -20.4543 2.2328 -2.68836
ltibia 36.0959
lfoot -13.2611 10.0404
ltoes -15.5626
